<svg width="32" height="32" viewBox="0 0 32 32" fill="none" xmlns="http://www.w3.org/2000/svg">
<circle cx="16" cy="16" r="16" fill="#FEC465"/>
<path d="M15.5678 5.6001C11.8154 5.63509 8.60463 8.39451 8.01995 12.0812C7.7993 13.4728 8.07917 14.7682 8.60214 16.0392C9.42367 18.035 10.512 19.8858 11.7269 21.6586C12.7728 23.1852 13.8811 24.6686 14.9719 26.1639C15.2966 26.6088 15.8084 26.6088 16.1418 26.1814C18.0106 23.7838 19.7658 21.3074 21.2525 18.6492C21.9836 17.3414 22.65 16.0017 23.0183 14.5376C23.3923 13.0498 23.1654 11.6088 22.5527 10.2385C21.4806 7.83775 19.6318 6.35556 17.0681 5.79193C16.5782 5.68258 16.0689 5.66133 15.5678 5.6001ZM15.5509 15.3668C14.0381 15.3649 12.7909 14.1158 12.7884 12.6005C12.7859 11.054 14.0319 9.79984 15.5646 9.80484C17.1055 9.80984 18.3422 11.0577 18.3378 12.603C18.3341 14.1289 17.0837 15.3687 15.5509 15.3668Z" fill="#003C77"/>
</svg>
